<svg xmlns="http://www.w3.org/2000/svg" width="35" height="35" fill="none" viewBox="0 0 35 35">
  <path fill="currentColor" d="M11.362 16.736a1.218 1.218 0 0 1 2.106 0l5.763 9.943a2.66 2.66 0 0 0 4.005.697c1.014-.84 1.156-2.343.507-3.483L14.687 8.329"/>
  <path fill="currentColor" d="m33.955 24.02-5.557-9.611c-.729-1.267-2.36-1.694-3.626-.966-1.266.729-1.694 2.36-.966 3.626l5.558 9.61c.728 1.267 2.359 1.694 3.625.966s1.694-2.359.966-3.626M24.851 8.33c-.728-1.267-2.359-1.695-3.625-.967s-1.694 2.36-.966 3.626 2.359 1.694 3.625.966c1.267-.744 1.71-2.36.966-3.626M13.72 7.364a2 2 0 0 0-.252-.127 2.625 2.625 0 0 0-3.23.87l-.016.017c-.016.031-.032.047-.048.079-.015.031-.047.079-.063.11L1.086 23.878c-.174.3-.3.65-.348.982v.063a2 2 0 0 0-.047.412c-.016.76.285 1.52.902 2.026a2.67 2.67 0 0 0 1.678.634h.095a2.65 2.65 0 0 0 2.28-1.315l5.81-10.085 3.247-5.62a2.645 2.645 0 0 0-.982-3.61"/>
</svg>