<?xml version="1.0" encoding="iso-8859-1"?>
<!-- Uploaded to: SVG Repo, www.svgrepo.com, Generator: SVG Repo Mixer Tools -->
<svg xmlns="http://www.w3.org/2000/svg"
	 viewBox="0 0 249.12 249.12" xml:space="preserve">
  <style>
    path {
      fill: black;
    }
    @media (prefers-color-scheme: dark) {
      path {
        fill: white;
      }
    }
  </style>
	<path d="M247.78,241.313l-60.467-60.467c17.669-19.22,28.474-44.845,28.474-72.948C215.787,48.402,167.388,0,107.897,0
		C48.403,0,0,48.402,0,107.897c0,59.491,48.402,107.891,107.896,107.891c28.104,0,53.729-10.805,72.948-28.474l60.467,60.466
		c0.893,0.893,2.063,1.34,3.234,1.34c1.17,0,2.341-0.447,3.234-1.34C249.567,245.994,249.567,243.099,247.78,241.313z
		 M9.147,107.897c0-54.451,44.299-98.75,98.75-98.75c54.447,0,98.744,44.299,98.744,98.75c0,54.447-44.297,98.744-98.744,98.744
		C53.445,206.641,9.147,162.344,9.147,107.897z"/>
	<path d="M111.129,58.105c-1.787-1.787-4.682-1.787-6.469,0l-47.404,47.401c-1.786,1.786-1.786,4.682,0,6.468
		c0.894,0.893,2.063,1.34,3.234,1.34c1.17,0,2.341-0.447,3.234-1.339l6.074-6.074v36.362c0,2.526,2.047,4.574,4.573,4.574h67.038
		c2.526,0,4.573-2.048,4.573-4.574v-36.368l6.079,6.079c1.787,1.786,4.682,1.786,6.469,0c1.786-1.786,1.786-4.682,0-6.468
		L111.129,58.105z M136.837,137.689H78.945V96.754l28.949-28.948l28.942,28.942V137.689z"/>
</svg>